<svg width="287" height="287" viewBox="0 0 287 287" fill="none" xmlns="http://www.w3.org/2000/svg">
<g filter="url(#filter0_dd_570_538)">
<circle cx="143.5" cy="143.5" r="43.5" fill="black" fill-opacity="0.01" shape-rendering="crispEdges"/>
<circle cx="143.5" cy="143.5" r="43" stroke="white" shape-rendering="crispEdges"/>
</g>
<path fill-rule="evenodd" clip-rule="evenodd" d="M130.715 167.33H156.332V161.865C155.083 161.863 153.865 161.737 152.693 161.503C149.623 160.906 146.935 159.594 144.994 157.806C144.819 157.652 144.654 157.496 144.5 157.329C144.422 157.25 144.343 157.155 144.264 157.077C144.028 156.809 143.791 156.541 143.571 156.258C143.555 156.226 143.524 156.21 143.524 156.195C143.319 155.927 143.13 155.628 142.956 155.344C142.952 155.33 142.945 155.316 142.938 155.304C142.929 155.291 142.918 155.276 142.907 155.26C142.898 155.247 142.888 155.233 142.878 155.218C142.72 154.95 142.594 154.683 142.468 154.399C142.437 154.32 142.389 154.257 142.358 154.179C142.247 153.927 142.153 153.659 142.074 153.391L141.98 153.108C141.901 152.856 141.854 152.572 141.806 152.304C141.791 152.21 141.743 152.1 141.743 152.005C141.696 151.643 141.665 151.249 141.665 150.871C141.665 150.866 141.665 150.86 141.665 150.855C141.675 145.743 146.351 141.467 152.661 140.24C152.882 140.192 153.103 140.145 153.323 140.114C153.166 139.232 152.945 138.365 152.661 137.515C152.409 136.759 152.11 136.003 151.748 135.294L152.661 135.499L153.733 135.735C153.741 135.737 153.749 135.739 153.757 135.74L153.733 135.704C154.659 135.904 155.51 136.271 156.285 136.76V119.686H149.006C148.744 119.69 148.496 119.747 148.272 119.848C148.493 119.754 148.736 119.701 148.991 119.701C148.492 119.709 148.04 119.913 147.71 120.241C147.38 120.578 147.179 121.039 147.179 121.544C147.179 121.623 147.147 121.686 147.131 121.749C147.131 121.796 147.131 121.843 147.1 121.891C147.068 121.954 147.021 122.017 146.974 122.08C146.942 122.111 146.927 122.143 146.911 122.174C146.848 122.237 146.785 122.269 146.706 122.316C146.675 122.332 146.659 122.363 146.627 122.379C146.517 122.426 146.407 122.458 146.281 122.458H140.782C140.682 122.458 140.585 122.442 140.494 122.412C140.272 122.352 140.081 122.208 139.963 122.017C139.873 121.876 139.821 121.708 139.821 121.528V121.387C139.805 121.324 139.805 121.245 139.805 121.182C139.79 121.119 139.758 121.072 139.758 121.024C139.742 120.961 139.695 120.835 139.695 120.835C139.664 120.788 139.616 120.694 139.616 120.694C139.585 120.631 139.522 120.52 139.522 120.52C139.49 120.473 139.459 120.442 139.427 120.394C139.38 120.331 139.349 120.284 139.301 120.237C139.27 120.205 139.223 120.174 139.191 120.142C139.128 120.095 139.034 120.016 139.034 120.016C138.986 119.985 138.939 119.969 138.892 119.938C138.831 119.907 138.784 119.876 138.724 119.846C138.685 119.834 138.642 119.823 138.608 119.812C138.545 119.796 138.498 119.764 138.435 119.749C138.372 119.749 138.309 119.733 138.246 119.733C138.183 119.733 138.104 119.717 138.041 119.717H130.715V124.269C131.117 124.27 131.514 124.283 131.906 124.309C132.934 124.365 133.946 124.514 134.937 124.749C135.371 124.848 135.796 124.962 136.213 125.088C137.776 125.566 139.203 126.239 140.44 127.067C143.474 129.08 145.383 132.019 145.383 135.294C145.383 140.586 140.388 145.012 133.724 146.052C134.008 147.721 134.543 149.343 135.3 150.871L133.315 150.43C133.252 150.416 133.189 150.402 133.126 150.386C132.255 150.182 131.451 149.83 130.715 149.368V167.33ZM138.388 119.749C138.388 119.749 138.514 119.78 138.561 119.812C138.498 119.796 138.451 119.764 138.388 119.749ZM139.79 121.182C139.79 121.182 139.79 121.324 139.805 121.387C139.805 121.324 139.805 121.245 139.79 121.182ZM138.734 119.859C138.734 119.859 138.844 119.922 138.907 119.953C138.844 119.922 138.797 119.89 138.734 119.859ZM139.353 120.316C139.325 120.28 139.301 120.253 139.301 120.253C139.321 120.272 139.337 120.294 139.353 120.316C139.378 120.346 139.406 120.381 139.427 120.41C139.399 120.382 139.377 120.348 139.353 120.316ZM142.452 154.383C142.452 154.383 142.374 154.242 142.342 154.163C142.374 154.242 142.421 154.305 142.452 154.383ZM143.555 156.242C143.555 156.242 143.535 156.222 143.519 156.198C143.512 156.191 143.508 156.185 143.508 156.179C143.511 156.185 143.515 156.192 143.519 156.198C143.53 156.209 143.545 156.222 143.555 156.242Z" fill="#EC88F7"/>
<path d="M160.003 161.471V167.33C160.003 169.362 158.349 171 156.332 171H130.683C128.651 171 127.013 169.346 127.013 167.33V145.91C127.28 145.957 127.533 146.004 127.8 146.052C128.446 147.406 129.455 148.524 130.683 149.312V167.33H130.715M160.003 161.471C158.837 161.692 157.608 161.833 156.332 161.833M160.003 161.471C158.822 161.707 157.608 161.833 156.332 161.833M160.003 161.471C166.321 160.243 171 155.958 171 150.84C171 148.981 170.37 147.249 169.283 145.721H169.267C169.267 145.721 169.267 145.721 169.267 145.705C169.251 145.674 169.22 145.642 169.204 145.626C169.094 145.469 168.968 145.311 168.842 145.17C168.731 145.028 168.605 144.886 168.479 144.744C168.353 144.618 168.243 144.477 168.117 144.351C167.959 144.193 167.802 144.035 167.628 143.894C167.518 143.783 167.408 143.689 167.282 143.579C166.983 143.327 166.683 143.09 166.368 142.87C166.337 142.854 166.321 142.838 166.289 142.823C165.911 142.555 165.533 142.319 165.123 142.082C165.123 142.082 165.108 142.082 165.092 142.067C164.273 141.61 163.39 141.216 162.445 140.885C162.351 140.854 162.24 140.822 162.146 140.791C161.768 140.665 161.39 140.555 161.011 140.46C160.901 140.429 160.791 140.397 160.696 140.381C160.46 140.334 160.224 140.287 160.003 140.24C159.735 140.192 159.483 140.129 159.215 140.082C158.569 138.728 157.561 137.609 156.332 136.822C155.551 136.322 154.693 135.946 153.757 135.74M156.332 161.833C155.056 161.833 153.827 161.692 152.661 161.471C150.188 160.999 147.966 160.054 146.186 158.762C146.17 158.762 146.17 158.762 146.17 158.762C145.887 158.557 145.603 158.337 145.335 158.101C145.257 158.038 145.194 157.975 145.115 157.912C145.074 157.876 145.034 157.841 144.994 157.806M156.332 161.833V161.865M137.994 119.701H130.668L130.636 119.67V124.253C129.36 124.253 128.131 124.395 126.965 124.615V119.67C126.965 117.638 128.62 116 130.636 116H156.285C158.317 116 159.956 117.654 159.956 119.67V140.177C159.688 140.129 159.436 140.082 159.168 140.035C158.522 138.68 157.514 137.562 156.285 136.775V136.76M137.994 119.701C137.994 119.701 138.025 119.701 138.041 119.701M137.994 119.701C138.009 119.701 138.041 119.701 138.041 119.701M137.994 119.701C138.072 119.701 138.135 119.701 138.199 119.717M138.041 119.701C138.104 119.701 138.151 119.701 138.199 119.717M138.041 119.701C138.088 119.701 138.151 119.717 138.199 119.717M138.718 119.843C138.671 119.827 138.608 119.812 138.561 119.796C138.514 119.764 138.451 119.733 138.388 119.733C138.325 119.717 138.262 119.717 138.199 119.717M138.724 119.846C138.722 119.845 138.72 119.844 138.718 119.843C138.671 119.827 138.561 119.796 138.561 119.796M139.034 120.016C138.986 119.985 138.939 119.969 138.892 119.938C138.831 119.907 138.784 119.876 138.724 119.846M139.034 120.016C139.081 120.048 139.128 120.095 139.191 120.142M139.034 120.016C139.034 120.016 139.128 120.095 139.191 120.142M139.034 120.016C139.097 120.048 139.144 120.095 139.191 120.142M139.191 120.142C139.238 120.174 139.27 120.205 139.301 120.237M139.191 120.142C139.191 120.142 139.27 120.205 139.301 120.237M139.427 120.394C139.38 120.331 139.349 120.284 139.301 120.237C139.27 120.205 139.223 120.174 139.191 120.142M139.427 120.394C139.459 120.442 139.49 120.473 139.522 120.52M139.427 120.394C139.427 120.394 139.49 120.473 139.522 120.52M139.522 120.52C139.553 120.568 139.585 120.631 139.616 120.694M139.522 120.52C139.522 120.52 139.585 120.631 139.616 120.694M139.616 120.694C139.648 120.741 139.664 120.788 139.695 120.835M139.616 120.694C139.616 120.694 139.664 120.788 139.695 120.835M139.616 120.694C139.648 120.741 139.679 120.788 139.695 120.835M139.695 120.835C139.727 120.898 139.742 120.961 139.758 121.024M139.695 120.835C139.695 120.835 139.742 120.961 139.758 121.024M139.758 121.024C139.758 121.072 139.79 121.119 139.805 121.182M139.758 121.024C139.758 121.024 139.79 121.119 139.805 121.182M139.758 121.024C139.774 121.087 139.805 121.135 139.805 121.182M139.821 121.528C139.821 121.481 139.821 121.434 139.821 121.387C139.805 121.324 139.805 121.245 139.805 121.182M139.821 121.387V121.528M139.821 121.528C139.821 121.708 139.873 121.876 139.963 122.017M146.895 122.174C146.895 122.174 146.769 122.269 146.69 122.316C146.769 122.269 146.832 122.237 146.895 122.174ZM147.084 121.891C147.053 121.954 147.005 122.017 146.958 122.08C146.958 122.08 146.911 122.143 146.895 122.174M146.895 122.174C146.927 122.143 146.942 122.111 146.958 122.08M146.958 122.08C146.958 122.08 147.053 121.969 147.084 121.891M147.084 121.891C147.084 121.891 147.1 121.796 147.116 121.749C147.116 121.796 147.116 121.843 147.084 121.891ZM153.733 135.704L152.661 135.467L151.748 135.263M153.733 135.704L153.757 135.74M153.733 135.704C154.659 135.904 155.51 136.271 156.285 136.76M153.733 135.704C154.644 135.904 155.509 136.271 156.285 136.76M147.163 164.574H139.837M160.696 140.35C160.46 140.303 160.224 140.255 160.003 140.208C160.239 140.271 160.476 140.303 160.696 140.35ZM160.696 140.35C160.807 140.381 160.917 140.397 161.011 140.429M162.146 140.759C161.768 140.633 161.39 140.523 161.011 140.429C160.901 140.397 160.791 140.366 160.696 140.35M161.011 140.429C161.405 140.523 161.783 140.633 162.146 140.759M162.146 140.759C162.24 140.791 162.351 140.822 162.445 140.854M162.461 140.87C163.406 141.2 164.288 141.594 165.108 142.051M165.108 142.051C165.108 142.051 165.123 142.051 165.139 142.067C165.139 142.067 165.123 142.067 165.108 142.051ZM156.332 136.806C157.561 137.594 158.569 138.712 159.215 140.066C159.483 140.114 159.735 140.161 160.003 140.224M142.862 155.202C142.704 154.935 142.578 154.667 142.452 154.383M142.452 154.383C142.452 154.383 142.374 154.242 142.342 154.163C142.374 154.242 142.421 154.305 142.452 154.383ZM141.98 153.092C141.901 152.824 141.854 152.556 141.806 152.289C141.854 152.556 141.901 152.84 141.98 153.092ZM141.98 153.092L142.074 153.375M142.956 155.328C143.13 155.612 143.319 155.895 143.524 156.179C143.319 155.911 143.13 155.612 142.956 155.328ZM142.956 155.328C142.941 155.281 142.909 155.25 142.878 155.202C142.883 155.219 142.895 155.24 142.907 155.26M142.956 155.328C142.956 155.328 142.949 155.319 142.938 155.304M141.743 151.974C141.759 152.068 141.791 152.178 141.806 152.273C141.791 152.178 141.743 152.068 141.743 151.974ZM141.743 151.974C141.697 151.601 141.665 151.228 141.665 150.855M141.743 151.974C141.697 151.616 141.665 151.228 141.665 150.855M141.665 150.84C141.665 150.845 141.665 150.85 141.665 150.855M142.074 153.375C142.169 153.643 142.247 153.911 142.358 154.163C142.247 153.911 142.153 153.643 142.074 153.375ZM142.907 155.26C142.898 155.247 142.888 155.233 142.878 155.218C142.72 154.95 142.594 154.683 142.468 154.399C142.437 154.32 142.389 154.257 142.358 154.179C142.247 153.927 142.153 153.659 142.074 153.391L141.98 153.108C141.901 152.856 141.854 152.572 141.806 152.304C141.791 152.21 141.743 152.1 141.743 152.005C141.696 151.643 141.665 151.249 141.665 150.871C141.665 150.866 141.665 150.86 141.665 150.855M141.98 153.108C142.011 153.202 142.043 153.297 142.074 153.391M116.898 139.043C116.772 138.775 116.662 138.507 116.551 138.224C116.488 138.066 116.457 137.909 116.394 137.751C116.441 137.909 116.488 138.066 116.551 138.224M116.551 138.224C116.646 138.507 116.772 138.775 116.898 139.043M116.016 135.263C116.016 135.53 116.032 135.798 116.063 136.066C116.079 136.271 116.11 136.475 116.142 136.664M116.142 136.664C116.142 136.743 116.173 136.885 116.173 136.885C116.173 136.806 116.142 136.743 116.142 136.664C116.11 136.46 116.079 136.271 116.063 136.066M116.93 139.106C116.93 139.106 116.914 139.074 116.898 139.043M116.93 139.106C116.914 139.074 116.898 139.058 116.898 139.043M116.93 139.106C117.071 139.373 117.213 139.641 117.371 139.893M117.418 139.972C117.418 139.972 117.386 139.925 117.371 139.893C117.213 139.641 117.056 139.373 116.93 139.106M117.418 139.972C117.402 139.94 117.386 139.925 117.371 139.893M117.418 139.972C117.544 140.192 117.702 140.381 117.843 140.586C117.686 140.381 117.544 140.177 117.418 139.972ZM116.189 136.885C116.221 137.074 116.268 137.279 116.315 137.468C116.347 137.562 116.378 137.672 116.41 137.767M137.994 133.514H123.342M139.837 137.184H121.514M147.982 149.485H165.281M149.652 153.454H153.812M156.931 153.454H161.09M130.715 167.33H156.332V161.865M130.715 167.33V149.368M130.715 167.33V167.362H156.364V161.865C156.353 161.865 156.343 161.865 156.332 161.865M156.332 161.865C155.083 161.863 153.865 161.737 152.693 161.503C149.623 160.906 146.935 159.594 144.994 157.806M144.994 157.806C144.819 157.652 144.654 157.496 144.5 157.329C144.422 157.25 144.343 157.155 144.264 157.077C144.028 156.809 143.791 156.541 143.571 156.258C143.555 156.226 143.524 156.21 143.524 156.195C143.319 155.927 143.13 155.628 142.956 155.344C142.952 155.33 142.945 155.316 142.938 155.304M144.994 157.806C144.474 157.328 144.008 156.815 143.602 156.273C143.602 156.258 143.571 156.242 143.555 156.21C143.35 155.927 143.161 155.643 142.988 155.36C142.956 155.313 142.925 155.281 142.909 155.234C142.752 154.966 142.626 154.698 142.5 154.415C142.468 154.336 142.421 154.273 142.389 154.194C142.279 153.942 142.2 153.675 142.106 153.407C142.074 153.312 142.043 153.218 142.011 153.123C141.932 152.856 141.885 152.588 141.838 152.32C141.822 152.226 141.791 152.115 141.775 152.021C141.728 151.643 141.696 151.265 141.696 150.887C141.696 145.768 146.375 141.468 152.693 140.255C152.913 140.208 153.134 140.161 153.355 140.129C153.197 139.247 152.976 138.381 152.693 137.531C152.441 136.775 152.141 136.034 151.779 135.31L152.693 135.515L153.764 135.751L153.757 135.74M142.938 155.304C142.929 155.291 142.918 155.276 142.907 155.26M142.938 155.304C142.929 155.289 142.918 155.275 142.907 155.26M141.665 150.855C141.675 145.743 146.351 141.467 152.661 140.24C152.882 140.192 153.103 140.145 153.323 140.114C153.166 139.232 152.945 138.365 152.661 137.515C152.409 136.759 152.11 136.003 151.748 135.294L152.661 135.499L153.733 135.735C153.741 135.737 153.749 135.739 153.757 135.74M156.285 136.76V119.686M156.285 136.76C156.301 136.77 156.317 136.78 156.332 136.79V119.686H156.285M156.285 119.686H149.006C148.744 119.69 148.496 119.747 148.272 119.848M156.285 119.686V119.67H148.959C147.951 119.67 147.131 120.489 147.131 121.497C147.131 121.591 147.1 121.654 147.084 121.733C147.068 121.78 147.068 121.828 147.053 121.875C147.021 121.954 146.974 122.001 146.927 122.064C146.911 122.095 146.895 122.127 146.864 122.158C146.801 122.221 146.738 122.253 146.659 122.3C146.643 122.316 146.612 122.363 146.58 122.363C146.486 122.41 146.359 122.442 146.233 122.442H140.735C140.411 122.442 140.125 122.272 139.963 122.017M148.272 119.848C148.493 119.754 148.736 119.701 148.991 119.701C148.492 119.709 148.04 119.913 147.71 120.241M148.272 119.848C148.06 119.944 147.87 120.078 147.71 120.241M148.272 119.848C147.62 120.128 147.163 120.775 147.163 121.528C147.163 121.607 147.131 121.686 147.116 121.765C147.131 121.702 147.163 121.639 147.163 121.56C147.163 121.042 147.372 120.577 147.71 120.241M147.71 120.241C147.38 120.578 147.179 121.039 147.179 121.544C147.179 121.623 147.147 121.686 147.131 121.749C147.131 121.796 147.131 121.843 147.1 121.891C147.068 121.954 147.021 122.017 146.974 122.08C146.942 122.111 146.927 122.143 146.911 122.174C146.848 122.237 146.785 122.269 146.706 122.316C146.675 122.332 146.659 122.363 146.627 122.379C146.517 122.426 146.407 122.458 146.281 122.458H140.782C140.682 122.458 140.585 122.442 140.494 122.412M140.494 122.412C140.272 122.352 140.081 122.208 139.963 122.017M140.494 122.412C140.142 122.297 139.881 121.979 139.869 121.591C139.869 121.528 139.869 121.465 139.869 121.402C139.869 121.339 139.869 121.261 139.853 121.198C139.853 121.15 139.821 121.103 139.805 121.04C139.79 120.977 139.774 120.914 139.742 120.851C139.727 120.804 139.695 120.757 139.664 120.709C139.632 120.646 139.601 120.583 139.569 120.536C139.538 120.489 139.506 120.457 139.475 120.41C139.427 120.363 139.396 120.3 139.349 120.253C139.317 120.221 139.27 120.19 139.238 120.158C139.191 120.111 139.144 120.064 139.081 120.032C139.034 120.001 138.986 119.985 138.939 119.953C138.876 119.922 138.829 119.89 138.766 119.859C138.753 119.855 138.739 119.85 138.724 119.846M140.494 122.412C140.576 122.434 140.662 122.445 140.751 122.442C140.247 122.442 139.837 122.032 139.837 121.528C139.837 121.481 139.837 121.434 139.837 121.387C139.837 121.45 139.837 121.513 139.837 121.576C139.837 121.737 139.883 121.888 139.963 122.017M138.724 119.846C138.685 119.834 138.642 119.823 138.608 119.812C138.545 119.796 138.498 119.764 138.435 119.749C138.372 119.749 138.309 119.733 138.246 119.733C138.183 119.733 138.104 119.717 138.041 119.717H130.715V124.269M130.715 124.269C131.117 124.27 131.514 124.283 131.906 124.309M130.715 124.269C130.699 124.269 130.683 124.269 130.668 124.269C129.407 124.269 128.178 124.395 126.997 124.631C120.679 125.86 116 130.144 116 135.263C116 135.53 116.016 135.798 116.047 136.066C116.063 136.271 116.095 136.46 116.126 136.664C116.126 136.743 116.158 136.806 116.158 136.885C116.189 137.074 116.236 137.279 116.284 137.468C116.315 137.562 116.347 137.672 116.378 137.767C116.425 137.924 116.473 138.082 116.536 138.239C116.646 138.507 116.756 138.791 116.882 139.058C116.882 139.074 116.898 139.09 116.914 139.121C117.04 139.389 117.197 139.657 117.355 139.909C117.371 139.94 117.386 139.956 117.402 139.988C117.528 140.192 117.686 140.397 117.828 140.602C117.906 140.696 117.969 140.807 118.048 140.901C120.002 143.358 123.2 145.201 126.981 145.926C127.249 145.973 127.501 146.036 127.769 146.067C128.415 147.422 129.423 148.54 130.652 149.328C130.673 149.341 130.694 149.354 130.715 149.368M130.715 124.269V124.3C132.606 124.269 134.48 124.552 136.261 125.119C137.803 125.591 139.214 126.253 140.44 127.067M131.906 124.309C132.934 124.365 133.946 124.514 134.937 124.749M131.906 124.309C131.496 124.286 131.083 124.278 130.668 124.285C132.621 124.285 134.496 124.584 136.213 125.104C135.792 124.97 135.367 124.851 134.937 124.749M131.906 124.309C132.953 124.376 133.965 124.527 134.937 124.749M134.937 124.749C135.371 124.848 135.796 124.962 136.213 125.088C137.776 125.566 139.203 126.239 140.44 127.067M140.44 127.067C143.474 129.08 145.383 132.019 145.383 135.294C145.383 140.586 140.388 145.012 133.724 146.052C134.008 147.721 134.543 149.343 135.3 150.871L133.315 150.43C133.252 150.416 133.189 150.402 133.126 150.386M140.44 127.067C143.446 129.079 145.335 132.005 145.335 135.263L145.32 135.278C145.32 140.57 140.31 144.996 133.661 146.036C133.945 147.721 134.48 149.343 135.237 150.855L133.251 150.414C133.21 150.405 133.168 150.396 133.126 150.386M133.126 150.386C132.255 150.182 131.451 149.83 130.715 149.368M133.126 150.386C132.266 150.174 131.449 149.813 130.715 149.343V149.368M139.353 120.316C139.325 120.28 139.301 120.253 139.301 120.253C139.321 120.272 139.337 120.294 139.353 120.316ZM139.353 120.316C139.378 120.346 139.406 120.381 139.427 120.41C139.399 120.382 139.377 120.348 139.353 120.316ZM143.519 156.198C143.535 156.222 143.555 156.242 143.555 156.242C143.545 156.222 143.53 156.209 143.519 156.198ZM143.519 156.198C143.512 156.191 143.508 156.185 143.508 156.179C143.511 156.185 143.515 156.192 143.519 156.198ZM146.249 122.442C146.375 122.442 146.501 122.41 146.596 122.363C146.486 122.41 146.375 122.442 146.249 122.442ZM138.907 119.938C138.907 119.938 139.002 119.985 139.049 120.016C139.002 119.985 138.955 119.969 138.907 119.938ZM138.214 119.717C138.214 119.717 138.34 119.717 138.403 119.733C138.34 119.733 138.277 119.717 138.214 119.717ZM138.388 119.749C138.388 119.749 138.514 119.78 138.561 119.812C138.498 119.796 138.451 119.764 138.388 119.749ZM139.79 121.182C139.79 121.182 139.79 121.324 139.805 121.387C139.805 121.324 139.805 121.245 139.79 121.182ZM146.596 122.379C146.596 122.379 146.659 122.332 146.675 122.316C146.643 122.332 146.627 122.363 146.596 122.379ZM138.734 119.859C138.734 119.859 138.844 119.922 138.907 119.953C138.844 119.922 138.797 119.89 138.734 119.859ZM165.123 142.067C165.533 142.303 165.927 142.539 166.289 142.807C165.911 142.539 165.533 142.303 165.123 142.067ZM166.305 142.807C166.305 142.807 166.352 142.838 166.384 142.854C166.352 142.838 166.337 142.823 166.305 142.807ZM118.064 140.87C117.985 140.775 117.922 140.681 117.843 140.57C117.922 140.665 117.985 140.775 118.064 140.87Z" stroke="white" stroke-width="0.75" stroke-linecap="round" stroke-linejoin="round"/>
<defs>
<filter id="filter0_dd_570_538" x="0" y="0" width="287" height="287" filterUnits="userSpaceOnUse" color-interpolation-filters="sRGB">
<feFlood flood-opacity="0" result="BackgroundImageFix"/>
<feColorMatrix in="SourceAlpha" type="matrix" values="0 0 0 0 0 0 0 0 0 0 0 0 0 0 0 0 0 0 127 0" result="hardAlpha"/>
<feOffset/>
<feGaussianBlur stdDeviation="10"/>
<feComposite in2="hardAlpha" operator="out"/>
<feColorMatrix type="matrix" values="0 0 0 0 0.388235 0 0 0 0 0.823529 0 0 0 0 1 0 0 0 1 0"/>
<feBlend mode="normal" in2="BackgroundImageFix" result="effect1_dropShadow_570_538"/>
<feColorMatrix in="SourceAlpha" type="matrix" values="0 0 0 0 0 0 0 0 0 0 0 0 0 0 0 0 0 0 127 0" result="hardAlpha"/>
<feOffset/>
<feGaussianBlur stdDeviation="50"/>
<feComposite in2="hardAlpha" operator="out"/>
<feColorMatrix type="matrix" values="0 0 0 0 0.388235 0 0 0 0 0.823529 0 0 0 0 1 0 0 0 0.2 0"/>
<feBlend mode="normal" in2="effect1_dropShadow_570_538" result="effect2_dropShadow_570_538"/>
<feBlend mode="normal" in="BackgroundImageFix" in2="effect2_dropShadow_570_538" result="BackgroundImageFix"/>
<feBlend mode="normal" in="SourceGraphic" in2="BackgroundImageFix" result="shape"/>
</filter>
</defs>
</svg>
